#!OML:ASF F:\VICON\USERDATA\INSTALL\rory3\rory3.ASF
:FULLY-SPECIFIED
:DEGREES
396
root 1.66453 16.7141 10.791 499.111 -48.5124 25.3254
lowerback 0.949144 1.27935 11.6342
upperback -17.1564 2.94417 -2.81829
thorax -19.1224 -0.887527 -10.3993
lowerneck 15.1492 -3.88165 41.3784
upperneck -22.4723 2.73559 -9.62504
head -9.43469 -1.27654 -10.1521
rclavicle -1.145e-013 -1.74931e-014
rhumerus 64.5507 -11.0177 -36.3629
rradius 33.5983
rwrist 13.0617
rhand -31.0965 -256.485
rfingers 7.12502
rthumb 175.624 -46.5506
lclavicle -1.145e-013 -1.74931e-014
lhumerus 77.816 22.0051 3.35814
lradius 30.1688
lwrist 22.5241
lhand -50.8935 -787.367
lfingers 7.12502
lthumb -23.4465 -38.7757
rfemur -67.7395 -42.552 -57.8889
rtibia 21.1247
rfoot 6.00892 -55.0083
rtoes 13.7539
lfemur -12.7918 -3.26586 -7.52448
ltibia 85.7707
lfoot -0.393108 14.3886
ltoes -2.19563
397
root 1.60625 16.7518 11.0401 499.955 -49.8856 25.0123
lowerback 1.00211 1.3877 11.5775
upperback -17.1425 3.08841 -2.95614
thorax -19.091 -0.820244 -10.5543
lowerneck 14.6383 -3.38444 39.9869
upperneck -22.0992 3.00679 -8.6571
head -9.16015 -1.10235 -9.56818
rclavicle 1.90833e-014 4.29375e-014
rhumerus 65.1162 -11.6412 -36.4038
rradius 32.9398
rwrist 13.9279
rhand -32.4383 -256.011
rfingers 7.12502
rthumb 174.328 -46.1065
lclavicle 1.90833e-014 4.29375e-014
lhumerus 77.706 21.8856 3.56183
lradius 29.8709
lwrist 22.8263
lhand -50.5151 -792.192
lfingers 7.12502
lthumb -23.0834 -43.5542
rfemur -73.9366 -44.7681 -51.0273
rtibia 27.1572
rfoot 7.54689 -48.7319
rtoes 11.5908
lfemur -12.3106 -3.03454 -6.06019
ltibia 85.6966
lfoot -2.55657 15.3889
ltoes 0.672243
398
root 1.55928 16.7896 11.3395 499.789 -50.4633 25.4248
lowerback 1.76294 1.45522 12.2866
upperback -17.0812 3.41551 -2.81292
thorax -19.4295 -0.795419 -10.8968
lowerneck 14.1038 -2.92593 39.0862
upperneck -21.9689 3.25447 -8.18021
head -8.96403 -0.957464 -9.26455
rclavicle -5.08889e-014 1.27222e-014
rhumerus 65.5722 -12.2372 -37.1218
rradius 32.4307
rwrist 15.822
rhand -33.9014 -255.03
rfingers 7.12502
rthumb 172.916 -45.1682
lclavicle -5.08889e-014 1.27222e-014
lhumerus 77.1172 21.6895 3.03545
lradius 30.0261
lwrist 23.6485
lhand -55.1719 -799.446
lfingers 7.12502
lthumb -27.5445 -51.4415
rfemur -76.9615 -44.3498 -47.0363
rtibia 31.8603
rfoot 13.0658 -45.0011
rtoes 3.49361
lfemur -11.2089 -2.43346 -3.99147
ltibia 84.4191
lfoot -3.31252 16.0316
ltoes -1.35035
399
root 1.52705 16.7911 11.5647 500.003 -51.3268 25.3958
lowerback 1.67226 1.51068 11.9082
upperback -16.9212 3.44318 -2.68311
thorax -19.16 -0.666267 -10.5061
lowerneck 13.5749 -2.62324 38.8609
upperneck -21.985 3.40648 -7.95307
head -8.84747 -0.907307 -9.14626
rclavicle -1.27222e-013 -5.08889e-014
rhumerus 65.9973 -12.8419 -38.6036
rradius 32.5556
rwrist 18.2637
rhand -34.0811 -254.72
rfingers 7.12502
rthumb 172.742 -44.864
lclavicle -1.27222e-013 -5.08889e-014
lhumerus 75.9627 21.5145 1.54827
lradius 30.532
lwrist 25.0488
lhand -51.9146 -806.039
lfingers 7.12502
lthumb -24.4257 -57.576
rfemur -79.6724 -44.2165 -42.492
rtibia 35.7974
rfoot 6.84964 -42.8523
rtoes 8.18412
lfemur -9.67787 -2.0088 -2.20748
ltibia 82.1447
lfoot -5.4149 15.8433
ltoes 0.858427
400
root 1.49617 16.7936 11.8251 501.133 -52.3295 24.5276
lowerback 1.70654 1.62864 11.4871
upperback -16.8703 3.55654 -2.77927
thorax -19.0867 -0.540261 -10.3951
lowerneck 12.9174 -2.25089 39.0893
upperneck -22.1158 3.60545 -8.17381
head -8.71773 -0.838698 -9.27087
rclavicle 1.1291e-013 8.26944e-014
rhumerus 66.3208 -13.4235 -40.4122
rradius 33.2706
rwrist 20.2402
rhand -33.939 -255.093
rfingers 7.12502
rthumb 172.879 -45.2325
lclavicle 1.1291e-013 8.26944e-014
lhumerus 74.9216 21.4118 0.233496
lradius 31.3093
lwrist 26.7893
lhand -52.1891 -627.452
lfingers 7.12502
lthumb -24.6888 -64.1211
rfemur -81.6701 -43.906 -39.0639
rtibia 38.9086
rfoot 4.11281 -40.7657
rtoes 8.64263
lfemur -8.4734 -1.34719 -1.45424
ltibia 78.8181
lfoot -6.4177 15.5265
ltoes -0.155637
401
root 1.46761 16.7866 12.1188 503.353 -53.2568 22.8918
lowerback 1.70166 1.8616 11.1567
upperback -17.0591 3.85058 -3.03932
thorax -19.2418 -0.393753 -10.576
lowerneck 11.7921 -1.78437 39.2526
upperneck -21.86 3.68817 -8.28529
head -8.39693 -0.784268 -9.3012
rclavicle 2.06736e-014 -1.90833e-014
rhumerus 66.0561 -13.7157 -40.9036
rradius 34.3141
rwrist 21.0583
rhand -34.1632 -256.101
rfingers 7.12502
rthumb 172.663 -46.2481
lclavicle 2.06736e-014 -1.90833e-014
lhumerus 74.2567 21.2638 -0.426765
lradius 32.1981
lwrist 28.2633
lhand -52.132 -623.467
lfingers 7.12502
lthumb -24.634 -68.0984
rfemur -83.6108 -43.5638 -35.9241
rtibia 41.4709
rfoot 4.2208 -38.8884
rtoes 7.2728
lfemur -7.59298 -0.291053 -1.43852
ltibia 74.8262
lfoot -7.7277 15.2151
ltoes -0.547877
